<?xml version="1.0" encoding="utf-8"?>
<!-- Generator: Adobe Illustrator 25.0.0, SVG Export Plug-In . SVG Version: 6.00 Build 0)  -->
<svg version="1.1" id="Layer_1" xmlns="http://www.w3.org/2000/svg" xmlns:xlink="http://www.w3.org/1999/xlink" x="0px" y="0px"
	 viewBox="0 0 193.71 177.09" style="enable-background:new 0 0 193.71 177.09;" xml:space="preserve">
<style type="text/css">
	.st0{fill:#FF875B;}
</style>
<path class="st0" d="M121.72,0h-49.9c-1.7,0-3,1.4-3,3.1c-1,48.3-25.5,94.2-67.6,126.7c-1.3,1-1.6,3-0.7,4.4l29.2,41.6
	c1,1.4,2.9,1.7,4.3,0.7c26.4-20.2,47.6-44.5,62.8-71.5c15.3,27,36.5,51.3,62.8,71.5c1.4,1,3.3,0.7,4.3-0.7l29.2-41.6
	c1-1.4,0.7-3.3-0.7-4.4c-42.2-32.5-66.6-78.3-67.6-126.7C124.72,1.4,123.32,0,121.72,0z"/>
</svg>