<svg width="24" height="28" viewBox="0 0 24 28" fill="none" xmlns="http://www.w3.org/2000/svg">
<path fillRule="evenodd" clipRule="evenodd" d="M16.1131 2.31776C16.1556 2.38968 16.0994 2.47858 16.0158 2.47858C14.325 2.47858 12.9505 3.81727 12.9182 5.48078C12.3392 5.37268 11.7393 5.36455 11.1466 5.46441C11.1057 3.8085 9.73465 2.47858 8.04933 2.47858C7.96578 2.47858 7.90955 2.38961 7.95206 2.31764C8.77055 0.931443 10.2915 0 12.0326 0C13.7737 0 15.2946 0.931498 16.1131 2.31776ZM21.8555 12.8286C22.0994 12.9025 22.3316 12.688 22.2629 12.4425C20.95 7.74794 15.838 5.84405 12.0093 5.84405C8.17555 5.84405 2.9494 7.80707 1.7694 12.4541C1.70755 12.6977 1.93891 12.9049 2.17919 12.8313L11.8005 9.8831C11.9068 9.85051 12.0204 9.85029 12.1269 9.88254L21.8555 12.8286ZM1.90455 13.4079L11.8064 10.4047C11.9121 10.3727 12.0249 10.3727 12.1306 10.4045L22.0934 13.4093C22.907 13.6546 23.4637 14.4041 23.4637 15.2538V24.1069C23.426 26.2679 21.4847 28 19.3244 28H15.7363C15.3816 28 15.0944 27.7131 15.0944 27.3584V24.2544C15.0944 23.0322 15.8178 21.926 16.9371 21.4364C18.4376 20.78 20.2126 19.8922 20.5465 18.1107C20.6543 17.5357 20.2793 16.9811 19.7058 16.8671C18.2556 16.5789 16.6478 16.6902 15.2883 17.2983C13.7448 17.9886 13.3411 19.1369 13.1916 20.6791L13.0104 22.3405C12.9551 22.8483 12.479 23.2373 11.9685 23.2373C11.4403 23.2373 11.0443 22.8351 10.987 22.3097L10.8092 20.6791C10.6812 19.3581 10.4491 18.075 9.08348 17.4642C7.52579 16.7675 5.96036 16.5361 4.29503 16.8671C3.72154 16.9811 3.34658 17.5357 3.45434 18.1107C3.79115 19.9077 5.55223 20.7752 7.06373 21.4364C8.18306 21.926 8.90641 23.0322 8.90641 24.2544V27.3578C8.90641 27.7126 8.6193 28 8.2646 28H4.67639C2.51612 28 0.574837 26.2679 0.537109 24.1069V15.2515C0.537109 14.4029 1.09242 13.6541 1.90455 13.4079Z" fill="url(#paint0_linear_1731_78547)"/>
<defs>
<linearGradient id="paint0_linear_1731_78547" x1="11.7756" y1="-1.512" x2="21.8282" y2="28.1331" gradientUnits="userSpaceOnUse">
<stop stop-color="#F5D45E"/>
<stop offset="1" stop-color="#FF9600"/>
</linearGradient>
</defs>
</svg>
