<svg width="28" height="28" viewBox="0 0 28 28" fill="none" xmlns="http://www.w3.org/2000/svg">
<path d="M23.8934 1.12012L25.3867 2.61345M23.8934 2.61345L25.3867 1.12012" stroke="white" stroke-width="0.5" stroke-linecap="round"/>
<rect x="0.25" y="0.25" width="27.5" height="27.5" rx="3.75" stroke="white" stroke-width="0.5"/>
<path d="M11.6293 7.84033L9.15137 9.67382L9.61216 8.59329L11.6293 7.84033Z" fill="#E17726" stroke="#E17726" stroke-width="0.25" stroke-linecap="round" stroke-linejoin="round"/>
<path d="M5.91309 7.84033L8.36895 9.69093L7.93023 8.59328L5.91309 7.84033Z" fill="#E27625" stroke="#E27625" stroke-width="0.25" stroke-linecap="round" stroke-linejoin="round"/>
<path d="M10.7365 12.0918L10.0771 13.099L11.4889 13.4877L11.8933 12.1138L10.7365 12.0918Z" fill="#E27625" stroke="#E27625" stroke-width="0.25" stroke-linecap="round" stroke-linejoin="round"/>
<path d="M5.65137 12.1138L6.05332 13.4877L7.46263 13.099L6.80577 12.0918L5.65137 12.1138Z" fill="#E27625" stroke="#E27625" stroke-width="0.25" stroke-linecap="round" stroke-linejoin="round"/>
<path d="M7.38629 10.3903L6.99414 10.9819L8.39118 11.0455L8.34462 9.54199L7.38629 10.3903Z" fill="#E27625" stroke="#E27625" stroke-width="0.25" stroke-linecap="round" stroke-linejoin="round"/>
<path d="M10.1562 10.3903L9.18323 9.5249L9.15137 11.0455L10.5484 10.9819L10.1562 10.3903Z" fill="#E27625" stroke="#E27625" stroke-width="0.25" stroke-linecap="round" stroke-linejoin="round"/>
<path d="M7.46289 13.0985L8.30846 12.6902L7.58054 12.123L7.46289 13.0985Z" fill="#E27625" stroke="#E27625" stroke-width="0.25" stroke-linecap="round" stroke-linejoin="round"/>
<path d="M9.23438 12.6902L10.0775 13.0985L9.9623 12.123L9.23438 12.6902Z" fill="#E27625" stroke="#E27625" stroke-width="0.25" stroke-linecap="round" stroke-linejoin="round"/>
<path d="M10.0775 13.0987L9.23438 12.6904L9.30299 13.238L9.29563 13.4703L10.0775 13.0987Z" fill="#D5BFB2" stroke="#D5BFB2" stroke-width="0.25" stroke-linecap="round" stroke-linejoin="round"/>
<path d="M7.46289 13.0987L8.2472 13.4703L8.2423 13.238L8.30846 12.6904L7.46289 13.0987Z" fill="#D5BFB2" stroke="#D5BFB2" stroke-width="0.25" stroke-linecap="round" stroke-linejoin="round"/>
<path d="M8.26153 11.7618L7.56055 11.5565L8.05564 11.3291L8.26153 11.7618Z" fill="#233447" stroke="#233447" stroke-width="0.25" stroke-linecap="round" stroke-linejoin="round"/>
<path d="M9.28125 11.7618L9.48714 11.3291L9.98468 11.5565L9.28125 11.7618Z" fill="#233447" stroke="#233447" stroke-width="0.25" stroke-linecap="round" stroke-linejoin="round"/>
<path d="M7.46154 13.099L7.58409 12.0918L6.80469 12.1138L7.46154 13.099Z" fill="#CC6228" stroke="#CC6228" stroke-width="0.25" stroke-linecap="round" stroke-linejoin="round"/>
<path d="M9.95801 12.0918L10.0781 13.099L10.7374 12.1138L9.95801 12.0918Z" fill="#CC6228" stroke="#CC6228" stroke-width="0.25" stroke-linecap="round" stroke-linejoin="round"/>
<path d="M10.5484 10.9814L9.15137 11.045L9.28126 11.7613L9.48715 11.3286L9.98469 11.5559L10.5484 10.9814Z" fill="#CC6228" stroke="#CC6228" stroke-width="0.25" stroke-linecap="round" stroke-linejoin="round"/>
<path d="M7.56031 11.5559L8.0554 11.3286L8.26129 11.7613L8.39118 11.045L6.99414 10.9814L7.56031 11.5559Z" fill="#CC6228" stroke="#CC6228" stroke-width="0.25" stroke-linecap="round" stroke-linejoin="round"/>
<path d="M6.99414 10.9814L7.57992 12.1231L7.5603 11.5559L6.99414 10.9814Z" fill="#E27525" stroke="#E27525" stroke-width="0.25" stroke-linecap="round" stroke-linejoin="round"/>
<path d="M9.98397 11.5559L9.96191 12.1231L10.5477 10.9814L9.98397 11.5559Z" fill="#E27525" stroke="#E27525" stroke-width="0.25" stroke-linecap="round" stroke-linejoin="round"/>
<path d="M8.39163 11.0444L8.26172 11.7607L8.42593 12.6066L8.4627 11.4918L8.39163 11.0444Z" fill="#E27525" stroke="#E27525" stroke-width="0.25" stroke-linecap="round" stroke-linejoin="round"/>
<path d="M9.15164 11.0444L9.08301 11.4894L9.11733 12.6066L9.28154 11.7607L9.15164 11.0444Z" fill="#E27525" stroke="#E27525" stroke-width="0.25" stroke-linecap="round" stroke-linejoin="round"/>
<path d="M9.2814 11.7615L9.11719 12.6073L9.23484 12.6905L9.96278 12.1233L9.98483 11.5562L9.2814 11.7615Z" fill="#F5841F" stroke="#F5841F" stroke-width="0.25" stroke-linecap="round" stroke-linejoin="round"/>
<path d="M7.56055 11.5562L7.58017 12.1233L8.30809 12.6905L8.42574 12.6073L8.26153 11.7615L7.56055 11.5562Z" fill="#F5841F" stroke="#F5841F" stroke-width="0.25" stroke-linecap="round" stroke-linejoin="round"/>
<path d="M9.29621 13.4702L9.30355 13.238L9.23984 13.1842H8.30358L8.2423 13.238L8.2472 13.4702L7.46289 13.0986L7.7374 13.3235L8.29376 13.7074H9.24718L9.806 13.3235L10.0781 13.0986L9.29621 13.4702Z" fill="#C0AC9D" stroke="#C0AC9D" stroke-width="0.25" stroke-linecap="round" stroke-linejoin="round"/>
<path d="M9.23482 12.6905L9.11717 12.6074H8.426L8.30837 12.6905L8.24219 13.2381L8.30347 13.1844H9.23973L9.30346 13.2381L9.23482 12.6905Z" fill="#161616" stroke="#161616" stroke-width="0.25" stroke-linecap="round" stroke-linejoin="round"/>
<path d="M11.7343 9.7936L11.9427 8.78152L11.6289 7.84033L9.23438 9.61271L10.1559 10.3901L11.4574 10.769L11.7441 10.4341L11.6192 10.3437L11.8177 10.1628L11.6657 10.0454L11.8642 9.89384L11.7343 9.7936Z" fill="#763E1A" stroke="#763E1A" stroke-width="0.25" stroke-linecap="round" stroke-linejoin="round"/>
<path d="M5.59961 8.78152L5.81039 9.7936L5.67559 9.89384L5.87657 10.0454L5.72461 10.1628L5.92314 10.3437L5.79814 10.4341L6.0849 10.769L7.38637 10.3901L8.30791 9.61271L5.91333 7.84033L5.59961 8.78152Z" fill="#763E1A" stroke="#763E1A" stroke-width="0.25" stroke-linecap="round" stroke-linejoin="round"/>
<path d="M11.457 10.769L10.1555 10.3901L10.5477 10.9817L9.96191 12.1234L10.7364 12.1136H11.8933L11.457 10.769Z" fill="#F5841F" stroke="#F5841F" stroke-width="0.25" stroke-linecap="round" stroke-linejoin="round"/>
<path d="M7.38664 10.3901L6.08519 10.769L5.65137 12.1136H6.80577L7.58026 12.1234L6.99449 10.9817L7.38664 10.3901Z" fill="#F5841F" stroke="#F5841F" stroke-width="0.25" stroke-linecap="round" stroke-linejoin="round"/>
<path d="M9.15026 11.0453L9.2336 9.61267L9.61104 8.59326H7.92969L8.30713 9.61267L8.39046 11.0453L8.42233 11.4951L8.42478 12.6074H9.11595L9.1184 11.4951L9.15026 11.0453Z" fill="#F5841F" stroke="#F5841F" stroke-width="0.25" stroke-linecap="round" stroke-linejoin="round"/>
<path d="M20.7361 17.6117L20.1224 16.9023H19.0449H17.9673L17.3536 17.6117C17.3536 17.6117 16.8149 17.4595 16.5596 17.7185C16.5596 17.7185 17.2788 17.6522 17.5255 18.0621C17.5255 18.0621 18.1919 18.1922 18.2815 18.1922C18.3711 18.1922 18.5662 18.1162 18.7454 18.0548C18.9246 17.9934 19.0449 17.9934 19.0449 17.9934C19.0449 17.9934 19.1651 17.9934 19.3443 18.0548C19.5235 18.1162 19.7187 18.1922 19.8083 18.1922C19.8978 18.1922 20.5643 18.0621 20.5643 18.0621C20.811 17.6522 21.5302 17.7185 21.5302 17.7185C21.2761 17.4595 20.7361 17.6117 20.7361 17.6117Z" fill="white"/>
<path d="M21.8285 18.6189L21.9929 18.2065C21.9929 18.2065 21.7831 17.9782 21.529 17.718C21.275 17.4578 20.7349 17.6112 20.7349 17.6112L20.1213 16.9019H19.0437H17.9649L17.3513 17.6112C17.3513 17.6112 16.8125 17.4591 16.5572 17.718C16.3019 17.977 16.0933 18.2065 16.0933 18.2065L16.2577 18.6189L16.0479 19.2288C16.0479 19.2288 16.664 21.6074 16.7364 21.8982C16.8787 22.4701 16.9757 22.6911 17.3807 22.9807C17.7857 23.2704 18.5184 23.7735 18.6387 23.8496C18.759 23.9257 18.9087 24.0558 19.0425 24.0558C19.1775 24.0558 19.3272 23.9257 19.4463 23.8496C19.5665 23.7735 20.2992 23.2704 20.7043 22.9807C21.1093 22.6911 21.2062 22.4701 21.3486 21.8982C21.421 21.6074 22.0371 19.2288 22.0371 19.2288L21.8285 18.6189Z" fill="url(#paint0_linear_1731_78551)"/>
<path d="M19.0437 21.3557C19.0842 21.3557 19.348 21.4502 19.5591 21.5619C19.7702 21.6736 19.9236 21.7522 19.9715 21.7828C20.0206 21.8135 19.9911 21.8724 19.9457 21.9043C19.9016 21.9363 19.3026 22.4088 19.2449 22.4603C19.1873 22.5131 19.1013 22.599 19.0437 22.599C18.986 22.599 18.9001 22.5131 18.8424 22.4603C18.7847 22.4075 18.1858 21.9363 18.1416 21.9043C18.0974 21.8724 18.0667 21.8135 18.1158 21.7828C18.1649 21.7522 18.3171 21.6736 18.5282 21.5619C18.7393 21.4502 19.0019 21.3557 19.0437 21.3557ZM19.0461 17.9941C19.0658 17.9941 19.1799 18.0003 19.3419 18.0555C19.5211 18.1169 19.7162 18.193 19.8058 18.193C19.8954 18.193 20.5618 18.0629 20.5618 18.0629C20.5618 18.0629 21.351 19.0349 21.351 19.2435C21.351 19.451 21.2516 19.5062 21.1522 19.6142C21.0528 19.7222 20.6158 20.1947 20.5606 20.2548C20.5042 20.315 20.3876 20.407 20.4563 20.5727C20.525 20.7384 20.6257 20.9483 20.514 21.1618C20.4011 21.3754 20.2084 21.5177 20.0856 21.4944C19.9617 21.4711 19.672 21.3165 19.5653 21.2453C19.4585 21.1753 19.121 20.8906 19.121 20.7814C19.121 20.6721 19.4708 20.477 19.5346 20.4328C19.5996 20.3886 19.8942 20.2168 19.9003 20.1493C19.9065 20.0818 19.904 20.0622 19.8169 19.8952C19.7297 19.7283 19.5739 19.5062 19.5996 19.3589C19.6254 19.2116 19.8782 19.1343 20.0586 19.0644C20.2391 18.9956 20.5852 18.8643 20.6293 18.8434C20.6723 18.8226 20.6613 18.8042 20.5299 18.7907C20.3986 18.7784 20.0267 18.7281 19.8586 18.7747C19.6905 18.8213 19.4033 18.895 19.3812 18.933C19.3591 18.9711 19.337 18.9723 19.3615 19.1061C19.3849 19.2386 19.5088 19.8756 19.5199 19.9885C19.5321 20.1014 19.5555 20.1763 19.4352 20.2045C19.3149 20.2327 19.1136 20.2806 19.0449 20.2806C18.9762 20.2806 18.7737 20.2327 18.6546 20.2045C18.5343 20.1763 18.5577 20.1014 18.5699 19.9885C18.5822 19.8756 18.7049 19.2386 18.7282 19.1061C18.7516 18.9735 18.7319 18.9723 18.7086 18.933C18.6853 18.895 18.3981 18.8226 18.23 18.7747C18.0618 18.7268 17.6899 18.7772 17.5586 18.7907C17.4273 18.8042 17.4163 18.8226 17.4592 18.8434C17.5022 18.8643 17.8495 18.9944 18.0299 19.0644C18.2103 19.1331 18.4619 19.2104 18.4889 19.3589C18.5147 19.5062 18.3588 19.7283 18.2717 19.8952C18.1846 20.0622 18.1821 20.0818 18.1882 20.1493C18.1944 20.2168 18.4889 20.3886 18.5527 20.4328C18.6178 20.477 18.9663 20.6721 18.9663 20.7814C18.9663 20.8906 18.6288 21.1741 18.5221 21.2453C18.4153 21.3152 18.1256 21.4699 18.0017 21.4944C17.8777 21.5177 17.685 21.3754 17.5734 21.1618C17.4604 20.9483 17.5623 20.7384 17.631 20.5727C17.6998 20.407 17.5832 20.315 17.5267 20.2548C17.4703 20.1947 17.0346 19.7222 16.9352 19.6142C16.8357 19.5062 16.7363 19.451 16.7363 19.2435C16.7363 19.0361 17.5255 18.0629 17.5255 18.0629C17.5255 18.0629 18.1919 18.193 18.2815 18.193C18.3711 18.193 18.5662 18.1169 18.7454 18.0555C18.9074 18.0003 19.0216 17.9941 19.0412 17.9941H19.0461Z" fill="white"/>
<path d="M20.7363 17.6132L20.1227 16.9038H19.0451H17.9663L17.3527 17.6132C17.3527 17.6132 16.8139 17.461 16.5586 17.72C16.5586 17.72 17.2778 17.6537 17.5245 18.0636C17.5245 18.0636 18.1909 18.1937 18.2805 18.1937C18.3701 18.1937 18.5652 18.1176 18.7444 18.0563C18.9236 17.9949 19.0439 17.9949 19.0439 17.9949C19.0439 17.9949 19.1642 17.9949 19.3434 18.0563C19.5225 18.1176 19.7177 18.1937 19.8073 18.1937C19.8969 18.1937 20.5633 18.0636 20.5633 18.0636C20.81 17.6537 21.5292 17.72 21.5292 17.72C21.2764 17.461 20.7363 17.6132 20.7363 17.6132Z" fill="url(#paint1_linear_1731_78551)"/>
<path d="M8.95332 16.9014C10.1616 17.9017 11.5463 17.8401 11.9421 17.8401C11.8555 23.5274 11.1959 22.3996 8.95332 23.9947C6.71069 22.3988 6.0553 23.5266 5.96875 17.8401C6.36031 17.8401 7.74588 17.9017 8.95332 16.9014Z" stroke="#3375BB" stroke-width="2" stroke-miterlimit="10" stroke-linecap="round" stroke-linejoin="round"/>
<path d="M20.9172 12.1089C20.4528 11.8617 20.0829 11.648 19.6936 11.4714C19.6107 11.4342 19.4489 11.5104 19.3429 11.5681C18.5143 12.0123 17.6915 12.4658 16.8648 12.9156C16.6239 13.0476 16.2424 12.9416 16.1094 12.7056C15.9726 12.464 16.0767 12.1127 16.3291 11.9751C17.5258 11.3227 18.7224 10.6703 19.9171 10.0161C20.0231 9.95843 20.1214 9.88408 20.2833 9.77628C19.8478 9.54208 19.4739 9.32833 19.0866 9.14618C19.0115 9.11086 18.865 9.1815 18.7687 9.23168C18.0248 9.6313 17.2849 10.0402 16.543 10.4454C16.4139 10.516 16.2829 10.583 16.0651 10.6963C16.0651 10.3562 16.0844 10.0774 16.0613 9.8023C16.0304 9.41941 16.3445 9.33577 16.5931 9.19636C17.2964 8.8079 18.0056 8.43244 18.707 8.04025C18.9228 7.91944 19.1117 7.90271 19.3333 8.02724C20.1156 8.4659 20.9095 8.88782 21.6919 9.32647C22.1389 9.57554 22.1293 10.0365 21.6803 10.2837C21.4048 10.4361 21.1273 10.5867 20.7766 10.7781C21.1022 10.964 21.3624 11.1331 21.6418 11.2651C21.9058 11.3915 22.004 11.5662 21.9944 11.8506C21.9617 12.9231 22.1524 12.6554 21.1562 13.2093C20.5742 13.5327 19.9827 13.8394 19.4046 14.1684C19.1483 14.3152 18.917 14.3375 18.6588 14.1758C18.4468 14.042 18.2195 13.9305 17.9131 13.7613C18.4526 13.4658 18.9267 13.2056 19.3988 12.9454C19.8786 12.6833 20.3546 12.4212 20.9172 12.1089Z" fill="#7524F9"/>
<path d="M0 4.10645L28 4.10645" stroke="white" stroke-width="0.5"/>
<circle cx="3.17328" cy="2.05316" r="0.56" fill="white"/>
<circle cx="5.03949" cy="2.05316" r="0.56" fill="white"/>
<circle cx="6.90766" cy="2.05316" r="0.56" fill="white"/>
<defs>
<linearGradient id="paint0_linear_1731_78551" x1="16.0465" y1="20.4806" x2="22.0355" y2="20.4806" gradientUnits="userSpaceOnUse">
<stop stop-color="#FF5500"/>
<stop offset="0.4099" stop-color="#FF5500"/>
<stop offset="0.582" stop-color="#FF2000"/>
<stop offset="1" stop-color="#FF2000"/>
</linearGradient>
<linearGradient id="paint1_linear_1731_78551" x1="16.6688" y1="17.5467" x2="21.5333" y2="17.5467" gradientUnits="userSpaceOnUse">
<stop stop-color="#FF452A"/>
<stop offset="1" stop-color="#FF2000"/>
</linearGradient>
</defs>
</svg>
