<svg width="12" height="18" viewBox="0 0 12 18" fill="none" xmlns="http://www.w3.org/2000/svg">
<path d="M5.5617 18C5.23325 17.9421 4.89513 17.8987 4.57151 17.8215C2.25783 17.2955 0.398191 15.264 0.0649057 12.9093C-0.340833 10.0913 1.18552 7.45178 3.80833 6.41433C7.09288 5.12114 10.8122 6.96925 11.7734 10.3711C12.7442 13.8019 10.4934 17.3389 6.97696 17.918C6.79341 17.9469 6.60986 17.971 6.42631 17.9952C6.14133 18 5.85152 18 5.5617 18ZM6.00608 7.08988C3.2915 7.08023 1.07925 9.27577 1.07442 11.9876C1.06959 14.6995 3.26735 16.9095 5.98193 16.9191C8.69652 16.9288 10.9088 14.7284 10.9136 12.0166C10.9184 9.29989 8.7255 7.09953 6.00608 7.08988Z" fill="#00D395"/>
<path d="M6.71665 2.48217C6.71665 3.1328 6.71665 3.78342 6.71665 4.43405C6.71665 4.76827 6.41395 5 5.98889 5C5.56383 5 5.26758 4.76827 5.26758 4.42959C5.26758 3.14171 5.26758 1.85383 5.26758 0.561497C5.27402 0.227273 5.56383 0 5.99533 0C6.42683 0 6.71665 0.227273 6.71665 0.565954C6.71665 1.20766 6.71665 1.84492 6.71665 2.48217Z" fill="#00D395"/>
<path d="M2.45 3.50003C2.45 3.85039 2.45 4.20074 2.45 4.5511C2.45 4.81387 2.14067 5 1.72178 5C1.30289 4.99635 1 4.81022 1 4.54745C1 3.84674 1 3.14602 1 2.4453C1 2.18253 1.30933 1.9964 1.72822 2.00005C2.15356 2.00005 2.44356 2.18253 2.44356 2.4526C2.45 2.79931 2.45 3.14967 2.45 3.50003Z" fill="#00D395"/>
<path d="M9.60833 3.55221C9.60833 3.28172 9.60189 3.00479 9.60833 2.7343C9.61477 2.31568 9.91747 2.00654 10.3103 2.0001C10.7161 1.99366 11.0445 2.29635 11.051 2.72141C11.0638 3.28172 11.0638 3.84203 11.051 4.40233C11.0445 4.82095 10.7032 5.14297 10.3103 5.13009C9.91747 5.11721 9.61477 4.80807 9.60833 4.38945C9.60189 4.11252 9.60833 3.83559 9.60833 3.55221Z" fill="#00D395"/>
<path d="M6.64269 9.14212C6.8857 9.14212 7.09908 9.13702 7.31246 9.14212C7.70957 9.15231 8 9.39196 8 9.71318C8 10.0242 7.7155 10.274 7.33024 10.2842C6.90941 10.2944 6.48859 10.2842 6.06776 10.2893C5.59952 10.2944 5.35058 10.4984 5.34466 10.8706C5.33873 11.2479 5.58767 11.462 6.04406 11.4773C7.00425 11.5028 7.77477 12.0484 7.95851 12.8336C8.14818 13.6188 7.67401 14.3887 6.77902 14.7252C6.66047 14.7711 6.63084 14.8221 6.63677 14.9241C6.64269 15.0872 6.64269 15.2555 6.63677 15.4187C6.62491 15.7552 6.34041 16.005 5.96108 15.9999C5.5936 15.9948 5.31502 15.7501 5.30317 15.4238C5.29724 15.2453 5.30317 15.0669 5.30317 14.8476C5.0483 14.8476 4.80529 14.8629 4.56821 14.8425C4.26592 14.817 4.04069 14.6029 4.01106 14.3479C3.98142 14.0828 4.14145 13.8483 4.42596 13.7565C4.53264 13.7208 4.65711 13.7157 4.77566 13.7106C5.17277 13.7055 5.57581 13.7106 5.97293 13.7055C6.3167 13.7004 6.55379 13.5525 6.63677 13.318C6.75531 12.9611 6.46488 12.6297 6.01442 12.6195C5.55803 12.6093 5.14314 12.5022 4.77566 12.2625C3.60209 11.4824 3.79176 9.85594 5.13128 9.30528C5.26168 9.24919 5.32095 9.1931 5.30909 9.06564C5.29724 8.90248 5.30317 8.73422 5.30909 8.57106C5.32095 8.23964 5.59952 8 5.967 8C6.33448 8 6.62491 8.23454 6.63677 8.56596C6.64862 8.74952 6.64269 8.93307 6.64269 9.14212Z" fill="#00D395"/>
</svg>
