<svg width="16" height="16" viewBox="0 0 16 16" fill="none" xmlns="http://www.w3.org/2000/svg">
<circle cx="8" cy="8" r="7.5" fill="white" stroke="white"/>
<path d="M14 7.99991C14 11.3136 11.3138 13.9998 8.00009 13.9998C4.6864 13.9998 2 11.3136 2 7.99991C2 4.68622 4.6864 2 8.00009 2C11.3138 2 14 4.68622 14 7.99991Z" fill="#29296E"/>
<path d="M10.7927 6.39547L10.6401 5.92411C10.6091 5.82825 10.5335 5.75365 10.4372 5.72423L9.96357 5.57857C9.89801 5.55854 9.89747 5.46604 9.96251 5.44496L10.434 5.29239C10.5297 5.26138 10.6043 5.18571 10.6339 5.08949L10.7794 4.61583C10.7994 4.55044 10.8919 4.54973 10.913 4.61494L11.0656 5.0863C11.0966 5.18199 11.1723 5.25659 11.2685 5.28618L11.7422 5.43167C11.8077 5.45187 11.8084 5.54419 11.7432 5.56528L11.2717 5.71785C11.176 5.74886 11.1014 5.8247 11.0718 5.92092L10.9263 6.39441C10.9063 6.45998 10.8138 6.46068 10.7927 6.39547Z" fill="#FAFAFA"/>
<path d="M2.54688 7.90493C2.68952 7.62548 2.97163 7.41496 3.26472 7.28188C3.56083 7.15022 3.88635 7.06941 4.20603 7.04319C4.8514 6.98489 5.48011 7.09281 6.05283 7.2794C6.34788 7.36729 6.61191 7.48938 6.88462 7.61272C7.01717 7.67651 7.14175 7.74881 7.27004 7.81863L7.62445 8.02401C8.01358 8.26252 8.39085 8.47375 8.74525 8.63784C9.10055 8.80051 9.42164 8.91055 9.7243 8.96673C10.027 9.02361 10.3346 9.0229 10.7129 8.93607C11.0882 8.85119 11.5105 8.66814 11.9519 8.43334C12.396 8.19837 12.8514 7.91024 13.371 7.62867C13.3189 8.21716 13.1523 8.76897 12.8922 9.30182C12.6256 9.82829 12.2549 10.3418 11.7145 10.7577C11.1843 11.177 10.4561 11.4692 9.71491 11.5131C8.97331 11.5633 8.26787 11.3999 7.66768 11.1541C7.06519 10.9048 6.54457 10.5771 6.08314 10.2155C5.95573 10.1155 5.88733 10.0588 5.79323 9.97926L5.53044 9.74908C5.35341 9.6105 5.18188 9.44482 5.00663 9.30749C4.65701 9.01528 4.31111 8.72254 3.93189 8.46879C3.74069 8.33978 3.54346 8.22017 3.31983 8.1142C3.20873 8.06299 3.09071 8.01532 2.96401 7.97776C2.8343 7.9354 2.70246 7.91024 2.54688 7.90493Z" fill="#FF4F0A"/>
<path d="M2.54688 7.90472C2.61971 7.29922 2.90199 6.73128 3.35439 6.24787C3.80448 5.76907 4.50762 5.39996 5.28785 5.35105C5.67291 5.32536 6.06382 5.36824 6.42319 5.46783C6.78096 5.56706 7.11623 5.71166 7.41836 5.88195C7.56934 5.96754 7.71057 6.0611 7.85127 6.15555L8.22623 6.43943L8.81153 6.90122C9.19145 7.20371 9.55401 7.48351 9.8891 7.71458C10.2274 7.94601 10.5155 8.11506 10.7907 8.21412C11.0634 8.32221 11.4079 8.34985 11.8633 8.23538C12.0894 8.18328 12.3253 8.08813 12.5769 7.98499C12.8271 7.87938 13.0869 7.75339 13.371 7.62846C13.3368 7.9329 13.2749 8.23609 13.1574 8.51944C13.0446 8.80668 12.8959 9.08773 12.688 9.34981C12.5817 9.4774 12.4678 9.60569 12.3349 9.72406C12.202 9.8396 12.0547 9.94929 11.892 10.0455C11.5676 10.2335 11.1827 10.3709 10.7879 10.4198C10.3931 10.4694 9.99666 10.4446 9.6357 10.368C9.27279 10.2936 8.94213 10.1736 8.63858 10.0351C8.03361 9.75366 7.52752 9.39996 7.08008 9.02553C6.85539 8.83858 6.64469 8.6433 6.44516 8.44501L6.20948 8.20845C6.13842 8.13987 6.06666 8.07094 5.9956 8.00785C5.70924 7.75463 5.44343 7.56112 5.15069 7.44045C4.86008 7.3141 4.48813 7.26218 4.03183 7.3476C3.57731 7.43212 3.07866 7.62864 2.54688 7.90472Z" fill="#FAFAFA"/>
<path d="M4.94561 11.0276C4.94561 11.2067 4.80031 11.352 4.62116 11.352C4.442 11.352 4.29688 11.2067 4.29688 11.0276C4.29688 10.8484 4.442 10.7031 4.62116 10.7031C4.80031 10.7031 4.94561 10.8484 4.94561 11.0276Z" fill="#FAFAFA"/>
<path d="M4.94561 11.0276C4.94561 11.2067 4.80031 11.352 4.62116 11.352C4.442 11.352 4.29688 11.2067 4.29688 11.0276C4.29688 10.8484 4.442 10.7031 4.62116 10.7031C4.80031 10.7031 4.94561 10.8484 4.94561 11.0276Z" fill="#FAFAFA"/>
</svg>
