<svg width="16" height="16" viewBox="0 0 16 16" fill="none" xmlns="http://www.w3.org/2000/svg">
<circle cx="8" cy="8" r="7.5" fill="#2EA043" stroke="#2EA043"/>
<path d="M14 7.99991C14 11.3136 11.3138 13.9998 8.00009 13.9998C4.68639 13.9998 2 11.3136 2 7.99991C2 4.68622 4.68639 2 8.00009 2C11.3138 2 14 4.68622 14 7.99991Z" fill="#29296E"/>
<path d="M10.792 6.3956L10.6394 5.92424C10.6084 5.82837 10.5327 5.75377 10.4365 5.72435L9.96284 5.57869C9.89727 5.55867 9.89674 5.46617 9.96177 5.44508L10.4333 5.29251C10.529 5.2615 10.6036 5.18583 10.6332 5.08961L10.7787 4.61595C10.7987 4.55056 10.8912 4.54985 10.9123 4.61506L11.0649 5.08642C11.0959 5.18211 11.1715 5.25671 11.2678 5.28631L11.7414 5.43179C11.807 5.45199 11.8077 5.54431 11.7425 5.5654L11.2709 5.71797C11.1753 5.74898 11.1007 5.82483 11.0711 5.92105L10.9256 6.39453C10.9056 6.4601 10.8131 6.46081 10.792 6.3956Z" fill="#FAFAFA"/>
<path d="M2.54565 7.90493C2.6883 7.62548 2.97041 7.41496 3.2635 7.28188C3.55961 7.15022 3.88513 7.06941 4.2048 7.04319C4.85018 6.98489 5.47889 7.09281 6.05161 7.2794C6.34666 7.36729 6.61069 7.48938 6.8834 7.61272C7.01595 7.67651 7.14052 7.74881 7.26882 7.81863L7.62323 8.02401C8.01236 8.26252 8.38963 8.47375 8.74403 8.63784C9.09933 8.80051 9.42042 8.91055 9.72308 8.96673C10.0257 9.02361 10.3334 9.0229 10.7117 8.93607C11.087 8.85119 11.5093 8.66814 11.9507 8.43334C12.3948 8.19837 12.8502 7.91024 13.3697 7.62867C13.3176 8.21716 13.1511 8.76897 12.8909 9.30182C12.6244 9.82829 12.2537 10.3418 11.7132 10.7577C11.1831 11.177 10.4549 11.4692 9.71369 11.5131C8.97209 11.5633 8.26665 11.3999 7.66646 11.1541C7.06397 10.9048 6.54335 10.5771 6.08191 10.2155C5.95451 10.1155 5.88611 10.0588 5.79201 9.97926L5.52922 9.74908C5.35219 9.6105 5.18066 9.44482 5.00541 9.30749C4.65579 9.01528 4.30989 8.72254 3.93067 8.46879C3.73947 8.33978 3.54224 8.22017 3.31861 8.1142C3.20751 8.06299 3.08949 8.01532 2.96279 7.97776C2.83308 7.9354 2.70124 7.91024 2.54565 7.90493Z" fill="#FF4F0A"/>
<path d="M2.54565 7.90484C2.61848 7.29934 2.90077 6.73141 3.35317 6.248C3.80326 5.76919 4.5064 5.40008 5.28663 5.35117C5.67169 5.32548 6.0626 5.36836 6.42197 5.46795C6.77974 5.56718 7.11501 5.71178 7.41714 5.88207C7.56812 5.96766 7.70935 6.06122 7.85004 6.15567L8.22501 6.43955L8.81031 6.90134C9.19023 7.20383 9.55279 7.48363 9.88788 7.7147C10.2262 7.94613 10.5143 8.11518 10.7895 8.21424C11.0622 8.32233 11.4067 8.34998 11.8621 8.2355C12.0882 8.18341 12.3241 8.08825 12.5757 7.98512C12.8259 7.8795 13.0857 7.75351 13.3697 7.62858C13.3355 7.93302 13.2737 8.23621 13.1562 8.51956C13.0433 8.80681 12.8947 9.08785 12.6868 9.34993C12.5805 9.47752 12.4665 9.60581 12.3336 9.72418C12.2007 9.83972 12.0535 9.94941 11.8908 10.0456C11.5663 10.2336 11.1815 10.371 10.7867 10.4199C10.3918 10.4695 9.99544 10.4447 9.63448 10.3681C9.27157 10.2937 8.94091 10.1737 8.63736 10.0352C8.03239 9.75378 7.5263 9.40008 7.07886 9.02565C6.85417 8.8387 6.64347 8.64342 6.44394 8.44513L6.20826 8.20857C6.1372 8.13999 6.06543 8.07106 5.99438 8.00798C5.70802 7.75475 5.44221 7.56125 5.14947 7.44057C4.85886 7.31423 4.48691 7.26231 4.03061 7.34772C3.57609 7.43224 3.07744 7.62876 2.54565 7.90484Z" fill="#FAFAFA"/>
<path d="M4.94366 11.0272C4.94366 11.2064 4.79836 11.3517 4.6192 11.3517C4.44005 11.3517 4.29492 11.2064 4.29492 11.0272C4.29492 10.8481 4.44005 10.7028 4.6192 10.7028C4.79836 10.7028 4.94366 10.8481 4.94366 11.0272Z" fill="#FAFAFA"/>
<path d="M4.94366 11.0272C4.94366 11.2064 4.79836 11.3517 4.6192 11.3517C4.44005 11.3517 4.29492 11.2064 4.29492 11.0272C4.29492 10.8481 4.44005 10.7028 4.6192 10.7028C4.79836 10.7028 4.94366 10.8481 4.94366 11.0272Z" fill="#FAFAFA"/>
</svg>
