<svg width="22" height="22" viewBox="0 0 22 22" fill="none" xmlns="http://www.w3.org/2000/svg">
<path d="M22 11C22 17.0752 17.0753 22 11.0002 22C4.92506 22 0 17.0752 0 11C0 4.92481 4.92506 0 11.0002 0C17.0753 0 22 4.92481 22 11Z" fill="#29296E"/>
<path d="M16.1187 8.05891L15.8389 7.19473C15.7821 7.01898 15.6434 6.8822 15.467 6.82827L14.5986 6.56122C14.4784 6.52451 14.4774 6.35493 14.5966 6.31627L15.4611 6.03655C15.6365 5.9797 15.7733 5.84097 15.8276 5.66457L16.0943 4.79617C16.131 4.67629 16.3006 4.67499 16.3392 4.79455L16.619 5.65872C16.6758 5.83415 16.8145 5.97092 16.9909 6.02518L17.8593 6.2919C17.9795 6.32894 17.9808 6.4982 17.8613 6.53686L16.9968 6.81658C16.8213 6.87343 16.6846 7.01248 16.6303 7.18889L16.3636 8.05696C16.3269 8.17716 16.1573 8.17846 16.1187 8.05891Z" fill="#FAFAFA"/>
<path d="M1 10.8257C1.26152 10.3134 1.77872 9.92744 2.31606 9.68345C2.85892 9.44207 3.45571 9.29393 4.04178 9.24585C5.22496 9.13896 6.37761 9.33681 7.42759 9.67891C7.9685 9.84005 8.45256 10.0639 8.95254 10.29C9.19555 10.407 9.42393 10.5395 9.65914 10.6675L10.3089 11.044C11.0223 11.4813 11.714 11.8686 12.3637 12.1694C13.0151 12.4676 13.6037 12.6694 14.1586 12.7724C14.7135 12.8767 15.2775 12.8754 15.9711 12.7162C16.6592 12.5606 17.4333 12.225 18.2426 11.7945C19.0567 11.3637 19.8916 10.8355 20.8442 10.3192C20.7486 11.3982 20.4433 12.4098 19.9663 13.3867C19.4777 14.3519 18.7981 15.2934 17.8073 16.0559C16.8352 16.8246 15.5003 17.3603 14.1414 17.4409C12.7818 17.5328 11.4885 17.2333 10.3881 16.7827C9.28359 16.3256 8.32911 15.7249 7.48314 15.0618C7.24956 14.8786 7.12416 14.7746 6.95165 14.6287L6.46987 14.2067C6.14532 13.9527 5.83085 13.6489 5.50955 13.3971C4.86858 12.8614 4.23443 12.3247 3.5392 11.8595C3.18866 11.623 2.82708 11.4037 2.41709 11.2094C2.2134 11.1155 1.99703 11.0281 1.76475 10.9592C1.52694 10.8816 1.28524 10.8355 1 10.8257Z" fill="#FF4F0A"/>
<path d="M1 10.826C1.13352 9.71594 1.65104 8.67471 2.48044 7.78844C3.30562 6.91063 4.59471 6.23391 6.02512 6.14424C6.73107 6.09714 7.44773 6.17576 8.10657 6.35834C8.76249 6.54027 9.37715 6.80537 9.93105 7.11757C10.2078 7.27449 10.4668 7.44602 10.7247 7.61918L11.4121 8.13964L12.4852 8.98626C13.1817 9.54083 13.8464 10.0538 14.4607 10.4774C15.0809 10.9017 15.6092 11.2117 16.1137 11.3933C16.6137 11.5915 17.2452 11.6421 18.0801 11.4323C18.4947 11.3367 18.9271 11.1623 19.3884 10.9732C19.8471 10.7796 20.3234 10.5486 20.8442 10.3196C20.7815 10.8777 20.6681 11.4336 20.4527 11.953C20.2457 12.4797 19.9732 12.9949 19.5921 13.4754C19.3972 13.7093 19.1883 13.9445 18.9446 14.1615C18.701 14.3734 18.431 14.5745 18.1328 14.7509C17.5379 15.0956 16.8323 15.3474 16.1085 15.437C15.3847 15.528 14.6579 15.4825 13.9962 15.3422C13.3308 15.2057 12.7246 14.9858 12.1681 14.7317C11.059 14.2158 10.1312 13.5673 9.31087 12.8809C8.89894 12.5381 8.51266 12.1801 8.14686 11.8166L7.71478 11.3829C7.5845 11.2572 7.45293 11.1308 7.32266 11.0151C6.79766 10.5509 6.31036 10.1961 5.77367 9.97486C5.24088 9.74323 4.55897 9.64804 3.72243 9.80463C2.88913 9.9596 1.97494 10.3199 1 10.826Z" fill="#FAFAFA"/>
<path d="M5.39639 16.5499C5.39639 16.8784 5.12999 17.1448 4.80155 17.1448C4.4731 17.1448 4.20703 16.8784 4.20703 16.5499C4.20703 16.2215 4.4731 15.9551 4.80155 15.9551C5.12999 15.9551 5.39639 16.2215 5.39639 16.5499Z" fill="#FAFAFA"/>
<path d="M5.39639 16.5499C5.39639 16.8784 5.12999 17.1448 4.80155 17.1448C4.4731 17.1448 4.20703 16.8784 4.20703 16.5499C4.20703 16.2215 4.4731 15.9551 4.80155 15.9551C5.12999 15.9551 5.39639 16.2215 5.39639 16.5499Z" fill="#FAFAFA"/>
</svg>
