<svg width="18" height="18" viewBox="0 0 18 18" fill="none" xmlns="http://www.w3.org/2000/svg">
<path d="M15.2222 1C16.2041 1 17 1.78503 17 2.75342L17 5.7466C17 6.71499 16.2041 7.50002 15.2222 7.50002H12.5556C11.5737 7.50002 10.7778 6.71499 10.7778 5.7466L10.7778 2.75342C10.7778 1.78503 11.5737 1 12.5556 1L15.2222 1Z" stroke="#00D395" stroke-width="1.37" stroke-linecap="round" stroke-linejoin="round"/>
<path d="M2.77778 1C1.79594 1 1 1.78503 1 2.75342L1.00001 5.7466C1.00001 6.71499 1.79595 7.50002 2.77779 7.50002H5.44445C6.42629 7.50002 7.22223 6.71499 7.22223 5.7466L7.22222 2.75342C7.22222 1.78503 6.42628 1 5.44444 1L2.77778 1Z" stroke="#00D395" stroke-width="1.37" stroke-linecap="round" stroke-linejoin="round"/>
<path d="M15.2222 10.5C16.2041 10.5 17 11.285 17 12.2534V15.2466C17 16.215 16.2041 17 15.2222 17H12.5556C11.5737 17 10.7778 16.215 10.7778 15.2466V12.2534C10.7778 11.285 11.5737 10.5 12.5556 10.5H15.2222Z" stroke="#00D395" stroke-width="1.37" stroke-linecap="round" stroke-linejoin="round"/>
<path d="M2.77778 10.5C1.79595 10.5 1.00001 11.285 1.00001 12.2534L1.00001 15.2466C1.00001 16.215 1.79595 17 2.77779 17H5.44445C6.42629 17 7.22223 16.215 7.22223 15.2466L7.22223 12.2534C7.22223 11.285 6.42629 10.5 5.44445 10.5H2.77778Z" stroke="#00D395" stroke-width="1.37" stroke-linecap="round" stroke-linejoin="round"/>
</svg>
