<svg width="20" height="20" viewBox="0 0 20 20" fill="none" xmlns="http://www.w3.org/2000/svg">
<g clipPath="url(#clip0_1778_78392)">
<path d="M10 20C15.5228 20 20 15.5228 20 10C20 4.47715 15.5228 0 10 0C4.47715 0 0 4.47715 0 10C0 15.5228 4.47715 20 10 20Z" fill="#F0F0F0"/>
<path d="M13.478 10.0002C13.478 10.8698 11.9207 13.0437 9.99973 13.0437C8.07875 13.0437 6.52148 10.8698 6.52148 10.0002C6.52148 8.0792 8.07875 6.52197 9.99973 6.52197C11.9207 6.52197 13.478 8.0792 13.478 10.0002Z" fill="#D80027"/>
<path d="M13.478 10C13.478 11.921 11.9207 13.4782 9.99973 13.4782C8.07875 13.4782 6.52148 11.921 6.52148 10" fill="#0052B4"/>
<path d="M13.6855 13.0747L14.6077 12.1525L15.2225 12.7673L14.3003 13.6895L13.6855 13.0747Z" fill="black"/>
<path d="M12.1484 14.6113L13.0706 13.6892L13.6854 14.3039L12.7632 15.2261L12.1484 14.6113Z" fill="black"/>
<path d="M15.5312 14.9189L16.4534 13.9968L17.0682 14.6116L16.146 15.5337L15.5312 14.9189Z" fill="black"/>
<path d="M13.9941 16.4561L14.9163 15.5339L15.5311 16.1487L14.6089 17.0708L13.9941 16.4561Z" fill="black"/>
<path d="M14.6094 13.9966L15.5315 13.0744L16.1463 13.6892L15.2242 14.6114L14.6094 13.9966Z" fill="black"/>
<path d="M13.0723 15.5337L13.9944 14.6115L14.6092 15.2263L13.6871 16.1485L13.0723 15.5337Z" fill="black"/>
<path d="M15.5352 6.92725L13.076 4.46813L13.6908 3.85334L16.1499 6.31246L15.5352 6.92725Z" fill="black"/>
<path d="M13.0762 6.3125L12.154 5.39033L12.7688 4.77558L13.6909 5.69774L13.0762 6.3125Z" fill="black"/>
<path d="M14.6133 7.8501L13.6911 6.92793L14.3059 6.31317L15.228 7.23534L14.6133 7.8501Z" fill="black"/>
<path d="M14.9199 4.46777L13.9978 3.54561L14.6125 2.93082L15.5347 3.85299L14.9199 4.46777Z" fill="black"/>
<path d="M16.457 6.00537L15.5349 5.08321L16.1497 4.46842L17.0718 5.39058L16.457 6.00537Z" fill="black"/>
<path d="M3.54492 13.9951L6.00404 16.4542L5.38925 17.069L2.93014 14.6099L3.54492 13.9951Z" fill="black"/>
<path d="M6.00391 14.6094L6.92607 15.5315L6.31131 16.1463L5.38915 15.2241L6.00391 14.6094Z" fill="black"/>
<path d="M4.4668 13.0728L5.38896 13.9949L4.77418 14.6097L3.85201 13.6875L4.4668 13.0728Z" fill="black"/>
<path d="M5.38867 12.1504L7.84779 14.6095L7.233 15.2243L4.77389 12.7652L5.38867 12.1504Z" fill="black"/>
<path d="M6.00391 3.54395L3.54479 6.00306L2.93 5.38828L5.38912 2.92916L6.00391 3.54395Z" fill="black"/>
<path d="M6.92578 4.46582L4.46666 6.92494L3.85188 6.31015L6.31099 3.85103L6.92578 4.46582Z" fill="black"/>
<path d="M7.84961 5.38867L5.39049 7.84779L4.77573 7.23303L7.23485 4.77391L7.84961 5.38867Z" fill="black"/>
</g>
<defs>
<clipPath id="clip0_1778_78392">
<rect width="20" height="20" fill="white"/>
</clipPath>
</defs>
</svg>
