<svg width="20" height="20" viewBox="0 0 20 20" fill="none" xmlns="http://www.w3.org/2000/svg">
<g clipPath="url(#clip0_1778_78376)">
<path d="M10 20C15.5228 20 20 15.5228 20 10C20 4.47715 15.5228 0 10 0C4.47715 0 0 4.47715 0 10C0 15.5228 4.47715 20 10 20Z" fill="#D80027"/>
<path d="M9.58945 8.1709L10.41 9.30156L11.7388 8.8707L10.917 10.0004L11.7373 11.131L10.409 10.6985L9.58727 11.8282L9.58812 10.4313L8.25977 9.99879L9.58859 9.56793L9.58945 8.1709Z" fill="#F0F0F0"/>
<path d="M7.35035 12.8259C5.78957 12.8259 4.52426 11.5605 4.52426 9.99977C4.52426 8.43898 5.78957 7.17367 7.35035 7.17367C7.83699 7.17367 8.29488 7.29676 8.69465 7.51336C8.0675 6.9 7.2098 6.52148 6.2634 6.52148C4.34238 6.52148 2.78516 8.07875 2.78516 9.99973C2.78516 11.9207 4.34242 13.478 6.2634 13.478C7.20988 13.478 8.06754 13.0994 8.69465 12.4861C8.29488 12.7028 7.83699 12.8259 7.35035 12.8259Z" fill="#F0F0F0"/>
</g>
<defs>
<clipPath id="clip0_1778_78376">
<rect width="20" height="20" fill="white"/>
</clipPath>
</defs>
</svg>
